<svg fill="#41c078" height="2em" version="1.1" viewBox="0 0 129.11 141.44" xml:space="preserve" xmlns="http://www.w3.org/2000/svg"><g transform="translate(-40.059 -77.276)"><path d="m48.969 218.5c-1.093-0.32916-1.6655-1.1653-1.6655-2.4325 0-0.5555-0.25713-1.5113-0.5714-2.1239-0.56246-1.0965-0.56629-1.1905-0.24469-6.0087 0.28249-4.2322 0.26636-5.7007-0.11913-10.848-0.24522-3.2742-0.39192-6.8037-0.32602-7.8433 0.1241-1.9575 0.17182-2.0803 2.4142-6.2151 2.8607-5.2748 3.3051-8.5431 2.2799-16.766-0.36656-2.94-0.60547-6.3841-0.6243-8.9999l-0.0305-4.2374-0.85448 0.0985c-1.9763 0.22793-5.1882-2.871-7.2009-6.9477-1.4723-2.9821-1.9678-5.0536-1.9668-8.2239 0.0017-5.8792 2.5757-10.493 7.2136-12.93 2.6214-1.3775 4.845-1.8287 8.3748-1.6992 2.5742 0.0944 3.1229 0.20228 4.6302 0.91045 1.0666 0.50112 2.4565 1.5016 3.6943 2.6594 3.4083 3.1878 5.267 3.746 10.756 3.2299 4.7382-0.44549 11.407-0.16518 19.803 0.83239 8.8366 1.0499 15.978 1.1955 21.372 0.43576 2.3523-0.33129 4.6059-0.45417 7.4083-0.40398 3.5063 0.0628 4.1599 7e-3 5.0493-0.4279 2.8264-1.3834 4.8516-6.5424 7.1724-18.271 1.9779-9.9957 3.323-14.88 4.9908-18.124 1.7244-3.3537 1.9027-3.8939 2.4013-7.276 0.42835-2.9058 0.83307-4.0621 2.1253-6.0719 1.8981-2.9521 3.9675-4.3239 4.6366-3.0736 0.53835 1.0059 0.31313 3.7708-0.5041 6.1885-0.42789 1.2659-0.85007 2.8658-0.93817 3.5554l-0.16018 1.2538 2.0557-2.249c4.8278-5.2817 6.4384-6.447 8.7059-6.2991 2.499 0.16303 2.2758 1.4432-0.78688 4.5128-1.2217 1.2245-2.4745 2.7226-2.784 3.3292l-0.56265 1.1029h0.81425c1.4297 0 3.1621 0.57397 3.666 1.2146 0.26786 0.34053 0.56236 1.0903 0.65445 1.6662 0.33391 2.0882 1.8233 3.0728 5.4594 3.6091 1.768 0.26077 2.2911 0.70279 2.6141 2.2089 0.15447 0.72027 0.54222 1.811 0.86168 2.4239 0.64638 1.2401 0.47423 1.91-0.52919 2.0592-0.31417 0.0467-0.75097 0.43254-0.97068 0.8574-0.55161 1.0667-1.2896 1.4668-3.3414 1.8115-2.2998 0.38641-3.436 0.88007-4.743 2.0609-1.2951 1.17-1.7191 1.9439-1.9656 3.5878-0.10324 0.68849-0.21256 8.0688-0.24292 16.401-0.0626 17.179-0.0431 16.956-2.2735 26.032-1.4096 5.7363-2.4972 9.0913-3.7624 11.606-1.1236 2.2332-1.9402 3.3458-4.5638 6.2177-4.0533 4.437-6.2659 7.7779-7.2719 10.98-0.18285 0.58208-1.0784 2.9038-1.9901 5.1594-0.91172 2.2556-2.0368 5.2887-2.5003 6.7403-1.0681 3.3455-2.1002 9.3979-2.3022 13.5-0.19107 3.8801-0.15297 3.9461 3.3359 5.7857 3.3438 1.7631 3.7885 2.9299 1.3724 3.601-1.3603 0.37783-5.3257 0.33146-6.1224-0.0716-0.36352-0.18392-0.8993-0.73122-1.1906-1.2162-0.29132-0.48502-0.95874-1.3746-1.4832-1.9768-0.52441-0.60223-1.034-1.4276-1.1324-1.8341-0.0984-0.40652 0.0145-2.5496 0.25095-4.7625 1.0226-9.5702 0.27046-17.204-2.3043-23.389l-0.8071-1.9387-1.33 2.5823c-0.73148 1.4202-2.2687 4.2163-3.416 6.2134s-2.5456 4.676-3.1072 5.9531c-1.9523 4.439-4.2829 12.383-4.315 14.707-0.0179 1.2952 0.59463 1.932 3.4778 3.6158 2.2508 1.3145 2.7736 2.1235 1.9224 2.9747-0.46343 0.46342-0.96761 0.58589-2.8102 0.6826-4.039 0.212-5.9753-0.49688-6.3791-2.3354-0.095-0.43272-0.58005-1.2742-1.0778-1.87-1.1063-1.3242-1.1334-1.9249-0.23797-5.2804 2.3883-8.9499 2.8893-12.346 2.6909-18.242-0.15415-4.5815-1.0063-9.4169-1.7939-10.179-0.27393-0.26503-2.0299-0.44176-6.5911-0.66334-3.4197-0.16613-7.6465-0.47114-9.3927-0.6778-5.1978-0.61514-4.7607-0.73239-7.0282 1.8854-4.2732 4.9334-4.7836 5.5978-5.6744 7.3857-2.4204 4.8578-1.7242 9.9301 2.524 18.389 2.0766 4.1346 2.8062 5.0682 4.7846 6.1228 1.9451 1.0367 4.4679 3.2556 4.4679 3.9296 0 0.70956-0.61838 0.85957-4.1043 0.99568-4.0715 0.15898-4.9955-0.14736-5.2502-1.7406-0.13375-0.83641-0.41989-1.2743-1.3085-2.0025-0.77623-0.63606-1.5419-1.6994-2.4117-3.349-1.2621-2.3937-3.5089-5.8701-7.4305-11.497-3.6577-5.2481-3.8824-6.0204-3.1811-10.938 0.441-3.0922 0.4879-7.9845 0.08044-8.3909-0.67324-0.67161-8.9019 6.7754-11.064 10.013-1.8864 2.8249-2.8544 7.1843-3.8721 17.437-0.32377 3.2619-0.38594 4.9053-0.20503 5.4198 0.15102 0.42943 1.1431 1.4402 2.3714 2.4162 2.2031 1.7505 2.8669 2.7078 2.2832 3.2928-0.40937 0.41031-6.66 0.55187-7.8986 0.17889z"/></g></svg>
